<svg width="18" height="18" viewBox="0 0 18 18" fill="none" xmlns="http://www.w3.org/2000/svg">
<path d="M17.0342 3.62963C17.0342 4.8662 16.0317 5.86864 14.7952 5.86864C13.5586 5.86864 12.5562 4.8662 12.5562 3.62963C12.5562 2.39306 13.5586 1.39062 14.7952 1.39062C16.0317 1.39062 17.0342 2.39306 17.0342 3.62963Z" fill="#191919"/>
<path d="M9.031 1.47984C9.82701 1.47984 10.5959 1.5839 11.3197 1.77808C11.0648 2.30321 10.9231 2.89329 10.9231 3.51622C10.9231 5.71661 12.7067 7.50027 14.9071 7.50027C15.5389 7.50026 16.1359 7.35259 16.6667 7.09086C16.7381 7.4598 16.7778 7.83868 16.7778 8.2261C16.7778 11.9656 13.2976 14.9649 9.031 14.9649C8.83687 14.9649 8.6445 14.9587 8.45376 14.9478L7.73327 14.874L5.07795 16.842C4.98149 16.9132 4.86689 16.9579 4.74764 16.9703C4.62853 16.9826 4.50807 16.9623 4.39916 16.9125C4.29027 16.8627 4.19622 16.7852 4.12764 16.687C4.05908 16.5888 4.01832 16.4739 4.00898 16.3545V16.3011L4.0015 13.355L3.9705 13.3315C2.08562 11.9732 1.31475 10.6989 1.28418 8.37148V8.21862C1.28419 4.47913 4.76452 1.4799 9.031 1.47984Z" fill="#191919"/>
<path d="M8.46979 14.9499L8.45162 14.9478H8.45376L8.46979 14.9499Z" fill="#191919"/>
</svg>
