<svg width="23" height="23" viewBox="0 0 23 23" fill="none" xmlns="http://www.w3.org/2000/svg">
<circle cx="11.5" cy="11.5" r="11.5" fill="black" fill-opacity="0.12"/>
<path d="M16.1737 13.791C15.6348 15.3877 13.747 16.5668 11.5009 16.5668C9.25485 16.5668 7.36707 15.3877 6.82812 13.791" stroke="#191919" stroke-width="1.7" stroke-linecap="round"/>
<path d="M5.54102 7.64891C5.54102 6.98202 6.08163 6.44141 6.74852 6.44141C7.4154 6.44141 7.95602 6.98202 7.95602 7.64891V8.45925C7.95602 9.12613 7.4154 9.66675 6.74852 9.66675C6.08163 9.66675 5.54102 9.12613 5.54102 8.45925V7.64891Z" fill="#191919"/>
<rect x="14.5508" y="6.44141" width="2.415" height="3.22534" rx="1.2075" fill="#191919"/>
<path d="M11.2441 12.333C10.7401 12.2002 10.368 11.8395 10.368 11.1821C10.368 10.5247 10.7401 10.164 11.2441 10.0312" stroke="#191919" stroke-width="1.7" stroke-linecap="round"/>
</svg>
