<svg width="50" height="50" viewBox="0 0 50 50" fill="none" xmlns="http://www.w3.org/2000/svg">
<path d="M25 0C43.5694 0 50 6.43056 50 25C50 43.5694 43.5694 50 25 50C6.43056 50 0 43.5694 0 25C0 6.43056 6.43056 0 25 0ZM25 0.5C15.7474 0.5 9.67187 2.10743 5.88965 5.88965C2.10743 9.67187 0.5 15.7474 0.5 25C0.5 34.2526 2.10743 40.3281 5.88965 44.1104C9.67187 47.8926 15.7474 49.5 25 49.5C34.2526 49.5 40.3281 47.8926 44.1104 44.1104C47.8926 40.3281 49.5 34.2526 49.5 25C49.5 15.7474 47.8926 9.67187 44.1104 5.88965C40.3281 2.10743 34.2526 0.5 25 0.5Z" fill="black" fill-opacity="0.12"/>
</svg>
