<svg width="24" height="24" viewBox="0 0 24 24" fill="none" xmlns="http://www.w3.org/2000/svg">
<path fill-rule="evenodd" clip-rule="evenodd" d="M15.1357 11.9973C15.1357 13.7288 13.7323 15.1322 12.0007 15.1322C10.2692 15.1322 8.86523 13.7288 8.86523 11.9973C8.86523 10.2657 10.2692 8.8623 12.0007 8.8623C13.7323 8.8623 15.1357 10.2657 15.1357 11.9973Z" stroke="#191919" stroke-width="2" stroke-linejoin="round"/>
<path fill-rule="evenodd" clip-rule="evenodd" d="M19.9369 11.9982C19.9369 11.9518 19.9364 11.9055 19.9354 11.8594C19.9245 11.3482 20.0451 10.8369 20.3472 10.4244L20.5182 10.1908C20.8873 9.68676 21.0154 9.03509 20.7816 8.45568C20.4478 7.62801 20.0008 6.8585 19.459 6.16602C19.0739 5.6738 18.4454 5.45853 17.8241 5.5261L17.531 5.55798C17.0228 5.61325 16.5183 5.46437 16.0817 5.19851C16.0028 5.15045 15.923 5.10372 15.8423 5.05837C15.3966 4.80789 15.0152 4.44547 14.809 3.97766L14.6971 3.7239C14.4449 3.15168 13.9441 2.71478 13.3255 2.62355C12.8932 2.55981 12.4518 2.5249 12.0018 2.5249C11.5495 2.5249 11.1068 2.56149 10.6733 2.62705C10.0558 2.72043 9.55603 3.15701 9.30414 3.72845L9.19559 3.97469C8.98922 4.44286 8.60736 4.80544 8.16081 5.05515C8.07851 5.10118 7.99713 5.14863 7.91667 5.19747C7.47904 5.46312 6.9739 5.61263 6.46495 5.55732L6.18177 5.52654C5.56088 5.45906 4.93287 5.674 4.54765 6.16558C4.0046 6.85855 3.55667 7.62869 3.22234 8.4575C2.98876 9.03654 3.11667 9.68778 3.48539 10.1917L3.65713 10.4263C3.95816 10.8377 4.07911 11.3472 4.0683 11.8568C4.0673 11.9038 4.06679 11.9509 4.06679 11.9982C4.06679 12.0446 4.06729 12.0909 4.06825 12.137C4.07895 12.6482 3.95808 13.1594 3.65602 13.572L3.48525 13.8052C3.11626 14.3091 2.98823 14.9606 3.22168 15.5399C3.55558 16.3685 4.0026 17.1384 4.54487 17.8309C4.92986 18.3225 5.55784 18.5373 6.1786 18.4697L6.47121 18.4379C6.97996 18.3826 7.48489 18.5319 7.92198 18.7981C8.00042 18.8458 8.07973 18.8923 8.15991 18.9373C8.60601 19.1881 8.98809 19.5506 9.19455 20.0188L9.30658 20.2729C9.55877 20.8449 10.0594 21.2816 10.6778 21.3728C11.11 21.4366 11.5515 21.4715 12.0018 21.4715C12.4518 21.4715 12.8931 21.4366 13.3253 21.3728C13.944 21.2816 14.4449 20.8446 14.6971 20.2723L14.8086 20.0192C15.015 19.5507 15.3972 19.188 15.8435 18.9372C15.9236 18.8922 16.0028 18.8458 16.0812 18.798C16.5182 18.5319 17.0231 18.3826 17.5319 18.4379L17.8248 18.4697C18.4457 18.5373 19.0738 18.3223 19.4589 17.8305C20.0009 17.1382 20.4479 16.3685 20.7819 15.5401C21.0154 14.9607 20.8873 14.3091 20.5181 13.8051L20.3474 13.5721C20.0451 13.1595 19.9245 12.6481 19.9354 12.1368C19.9364 12.0907 19.9369 12.0445 19.9369 11.9982Z" stroke="#191919" stroke-width="2" stroke-linejoin="round"/>
</svg>
