<svg width="100" height="100" viewBox="0 0 100 100" fill="none" xmlns="http://www.w3.org/2000/svg">
<path fill-rule="evenodd" clip-rule="evenodd" d="M100 50C100 87.1389 87.1389 100 50 100C12.8611 100 0 87.1389 0 50C0 12.8611 12.8611 0 50 0C87.1389 0 100 12.8611 100 50Z" fill="black"/>
<path d="M50 0.25C68.5534 0.25 80.9657 3.46566 88.75 11.25C96.5343 19.0343 99.75 31.4466 99.75 50C99.75 68.5534 96.5343 80.9657 88.75 88.75C80.9657 96.5343 68.5534 99.75 50 99.75C31.4466 99.75 19.0343 96.5343 11.25 88.75C3.46566 80.9657 0.25 68.5534 0.25 50C0.25 31.4466 3.46566 19.0343 11.25 11.25C19.0343 3.46566 31.4466 0.25 50 0.25Z" stroke="black" stroke-opacity="0.12" stroke-width="0.5"/>
</svg>
